<svg width="1885.33" height="693.333" viewBox="0 0 1414 520" xmlns="http://www.w3.org/2000/svg" xmlns:xlink="http://www.w3.org/1999/xlink" overflow="hidden"><g><rect x="234" y="80" width="190" height="60" stroke="#000000" fill="none"/><text font-family="Helvetica Neue,Helvetica,Arial,Arial" font-size="12" text-anchor="middle" x="329" y="110">Выбрать агента для задачи</text><rect x="464" y="180" width="202" height="60" stroke="#000000" fill="none"/><text font-family="Helvetica Neue,Helvetica,Arial,Arial" font-size="12" text-anchor="middle" x="565" y="210">Отправить промпт провайдеру</text><rect x="706" y="280" width="190" height="60" stroke="#000000" fill="none"/><text font-family="Helvetica Neue,Helvetica,Arial,Arial" font-size="12" text-anchor="middle" x="801" y="310">Получить ответ провайдера</text><rect x="936" y="380" width="202" height="60" stroke="#000000" fill="none"/><text font-family="Helvetica Neue,Helvetica,Arial,Arial" font-size="12" text-anchor="middle" x="1037" y="410">Обновить задачу результатом</text><path d="M424 110 434 110C439 110 444 115 444 120L444 200C444 205 449 210 454 210L464 210" stroke="#000000" fill="none"/><path d="M464 210 458 213 458 207 464 210Z" stroke="#000000"/><text font-family="Helvetica Neue,Helvetica,Arial,Arial" font-size="12" x="429" y="105">Выбранный агент</text><path d="M666 210 676 210C681 210 686 215 686 220L686 290C686 295 691 300 696 300L706 300" stroke="#000000" fill="none"/><path d="M706 300 700 303 700 297 706 300Z" stroke="#000000"/><text font-family="Helvetica Neue,Helvetica,Arial,Arial" font-size="12" x="671" y="205">Исходящий промпт</text><path d="M896 320 906 320C911 320 916 325 916 330L916 400C916 405 921 410 926 410L936 410" stroke="#000000" fill="none"/><path d="M936 410 930 413 930 407 936 410Z" stroke="#000000"/><text font-family="Helvetica Neue,Helvetica,Arial,Arial" font-size="12" x="901" y="315">Сырой вывод LLM</text><line x1="20" y1="110" x2="234" y2="110" stroke="#000000" stroke-dasharray="5 5"/><path d="M234 110 228 113 228 107 234 110Z" stroke="#000000"/><text font-family="Helvetica Neue,Helvetica,Arial,Arial" font-size="12" x="25" y="105">Команда изменения задачи</text><line x1="20" y1="320" x2="706" y2="320" stroke="#000000" stroke-dasharray="5 5"/><path d="M706 320 700 323 700 317 706 320Z" stroke="#000000"/><text font-family="Helvetica Neue,Helvetica,Arial,Arial" font-size="12" x="25" y="315">Ответ LLM-провайдера</text><line x1="896" y1="300" x2="1394" y2="300" stroke="#000000" stroke-dasharray="5 5"/><path d="M1394 300 1388 303 1388 297 1394 300Z" stroke="#000000"/><text font-family="Helvetica Neue,Helvetica,Arial,Arial" font-size="12" text-anchor="end" x="1389" y="295">Данные об использовании токенов</text><line x1="1138" y1="420" x2="1394" y2="420" stroke="#000000" stroke-dasharray="5 5"/><path d="M1394 420 1388 423 1388 417 1394 420Z" stroke="#000000"/><text font-family="Helvetica Neue,Helvetica,Arial,Arial" font-size="12" text-anchor="end" x="1389" y="415">Результат выполненной задачи</text><line x1="1138" y1="400" x2="1394" y2="400" stroke="#000000" stroke-dasharray="5 5"/><path d="M1394 400 1388 403 1388 397 1394 400Z" stroke="#000000"/><text font-family="Helvetica Neue,Helvetica,Arial,Arial" font-size="12" text-anchor="end" x="1389" y="395">Запись события задачи</text><line x1="329" y1="40" x2="329" y2="80" stroke="#000000" stroke-dasharray="5 5"/><path d="M329 80 326 74 332 74 329 80Z" stroke="#000000"/><text font-family="Helvetica Neue,Helvetica,Arial,Arial" font-size="12" text-anchor="middle" x="329" y="35">Правила конечного автомата</text><line x1="565" y1="40" x2="565" y2="180" stroke="#000000" stroke-dasharray="5 5"/><path d="M565 180 562 174 568 174 565 180Z" stroke="#000000"/><text font-family="Helvetica Neue,Helvetica,Arial,Arial" font-size="12" text-anchor="middle" x="565" y="35">Конфигурация лимитов запросов</text><line x1="1037" y1="40" x2="1037" y2="380" stroke="#000000" stroke-dasharray="5 5"/><path d="M1037 380 1034 374 1040 374 1037 380Z" stroke="#000000"/><text font-family="Helvetica Neue,Helvetica,Arial,Arial" font-size="12" text-anchor="middle" x="1037" y="35">Правила конечного автомата</text><line x1="329" y1="480" x2="329" y2="140" stroke="#000000" stroke-dasharray="5 5"/><path d="M329 140 326 146 332 146 329 140Z" stroke="#000000"/><text font-family="Helvetica Neue,Helvetica,Arial,Arial" font-size="12" text-anchor="middle" x="329" y="495">База данных PostgreSQL</text><line x1="565" y1="480" x2="565" y2="240" stroke="#000000" stroke-dasharray="5 5"/><path d="M565 240 562 246 568 246 565 240Z" stroke="#000000"/><text font-family="Helvetica Neue,Helvetica,Arial,Arial" font-size="12" text-anchor="middle" x="565" y="495">Кэш Redis</text><line x1="1037" y1="480" x2="1037" y2="440" stroke="#000000" stroke-dasharray="5 5"/><path d="M1037 440 1034 446 1040 446 1037 440Z" stroke="#000000"/><text font-family="Helvetica Neue,Helvetica,Arial,Arial" font-size="12" text-anchor="middle" x="1037" y="495">База данных PostgreSQL</text></g></svg>